<svg version="1.2" xmlns="http://www.w3.org/2000/svg" width="192px" height="192px" viewBox="0 0 512 512" baseProfile="tiny" xmlns:xlink="http://www.w3.org/1999/xlink">
  <title>Carve SVG Editor Logo</title>
  <desc>A wood chisel with an orange handle</desc>
  <metadata/>
  <defs>
    <linearGradient id="grey1" y1="0" x1="1" y2="1" x2="0" >
      <stop offset="0" stop-color="#ccc" />
      <stop offset="1" stop-color="#999" />
    </linearGradient>
    <linearGradient id="grey2" y1="1" x1="1" y2="0" x2="0" >
      <stop offset="0" stop-color="#ddd" />
      <stop offset="1" stop-color="#999" />
    </linearGradient>
    <linearGradient id="grey3" y1="0" x1="0" y2="1" x2="0" >
      <stop offset="0" stop-color="#bbb" />
      <stop offset="1" stop-color="#666" />
    </linearGradient>
    <linearGradient id="handlegrad" y1="0" x1="0" y2="1" x2="1" >
      <stop offset="0" stop-color="#FF4" />
      <stop offset="0.4" stop-color="#F40" />
      <stop offset="0.75" stop-color="#000" />
    </linearGradient>
  </defs>
  <g transform="translate(120,120) scale(1.2) translate (-110,-180)" >
    <path fill="url(#grey3)" stroke="#000" stroke-width="0.25px" d="M25,420 l150,-150 c0,0 0,0 70,0 c0,0 0,0 0,70 l-148,148 z" />
    <path fill="url(#grey1)" stroke="#000" stroke-width="0.25px" d="M50,420 L180,290 225,290 225,334 97,462 Z" />
    <path fill="url(#grey2)" stroke="#000" stroke-width="0.25px" d="M50,420 L25,420 97,487 97,462 Z" />
    <g transform="translate(-5,5)" >
      <path fill="url(#handlegrad)" stroke="#000" id="handle" stroke-width="0.25px" d="M385,93 l40,40 -160,160 -40,-40 z" />
      <path fill="#000" stroke="#000" id="handle-cap" stroke-width="0.25px" d="M385,93 l40,40 -0,15 -55,-55 z" />
      <path fill="#000" stroke="#000" id="handle-guard" stroke-width="0.25px" d="M210,228 l80,80 -0,20 -100,-100 z" />
    </g>
  </g>
</svg>